# xmcd CD database file
#
# Track frame offsets:
#	150
#	15814
#	29331
#	42598
#	55238
#	70972
#	85482
#	99316
#	115053
#	127895
#	143062
#	155402
#	170289
#	182458
#	195510
#	206955
#	218424
#	231099
#	244426
#	256535
#	267045
#	279827
#
# Disc length: 3930 seconds
#
# Revision: 0
# Processed by: cddbd v1.5.2PL0 Copyright (c) Steve Scherf et al.
# Submitted via: CDex 1.70beta2
#
DISCID=230f5816
DTITLE=TONY RICE/J.D.CROWE - CALIFORNIA AUTUMN/STRAIGHT AWAY
DYEAR=1900
DGENRE=Country
TTITLE0=California Autumn
TTITLE1=Bullet Man
TTITLE2=Mr.Poverty
TTITLE3=Billy In The Lowground
TTITLE4=Red  Haired Boy
TTITLE5=Good Woman´s Love
TTITLE6=You Dont Know My Mind
TTITLE7=Alone And Forsaken
TTITLE8=Bugle Call Rag
TTITLE9=Georgia On My Mind
TTITLE10=Scarborough Fair
TTITLE11=Beaumount Rag
TTITLE12=Say You Lied
TTITLE13=Gods own Singer
TTITLE14=Stony Mountain Twist
TTITLE15=Helplessly Hoping
TTITLE16=Sugar Coated Love
TTITLE17=Runaround
TTITLE18=Youre No Longer Mine
TTITLE19=Belleville,Georgia
TTITLE20=Miners Lady
TTITLE21=Ride The Train
EXTD=
EXTT0=
EXTT1=
EXTT2=
EXTT3=
EXTT4=
EXTT5=
EXTT6=
EXTT7=
EXTT8=
EXTT9=
EXTT10=
EXTT11=
EXTT12=
EXTT13=
EXTT14=
EXTT15=
EXTT16=
EXTT17=
EXTT18=
EXTT19=
EXTT20=
EXTT21=
PLAYORDER=
